# xmcd
#
# Track frame offsets: 
#        150
#        16025
#        41150
#        60637
#        73198
#        89601
#        107829
#        125757
#        148594
#        167944
#
# Disc length: 2468 seconds
#
# Revision: 0
# Processed by: cddbd v1.5.2PL0 Copyright (c) Steve Scherf et al.
# Submitted via: ExactAudioCopyFreeDBPlugin 1.0
#
DISCID=9309a20a
DTITLE=李春波 - 一封家书
DYEAR=1994
DGENRE=Country
TTITLE0=一封家书
TTITLE1=塞车
TTITLE2=何日相见
TTITLE3=感慨
TTITLE4=这种心情
TTITLE5=骄傲的骆驼
TTITLE6=繁闹大都市
TTITLE7=天上飘着雨
TTITLE8=圈里圈外
TTITLE9=呼儿嘿呦
EXTD=
EXTT0=
EXTT1=
EXTT2=
EXTT3=
EXTT4=
EXTT5=
EXTT6=
EXTT7=
EXTT8=
EXTT9=
PLAYORDER=
